<svg xmlns="http://www.w3.org/2000/svg" viewBox="0 0 1920 1080"><defs><style>.a{fill:#c7d0d5;}.b{fill:#f0e3ca;}.c{fill:#98afb7;}</style></defs><path class="a" d="M594.51,729.73c14-24.42,87.25-168.9,93.36-178.56h.51c22.38,36.12,82.67,150.84,100,177.29l-21.62,14.25c-5.09-9.67-32.05-61.82-34.85-65.89l-88.26,3.57c-3.05,4.83-23.91,53.92-28.24,62.57Zm129.73-69.18c-2.8-5.6-34.08-64.87-36.63-68.94-3.81,5.6-33.06,67.92-35.35,72Z"/><path class="a" d="M858.29,738.13c1.27-19.08,8.14-162,9.41-188.24h.51C875.33,558,998.44,686,1006.58,694.12c0-7.12,1.53-126.93,1.79-135.32l23.65,1.27c-1,15.26-5.85,119.3-6.87,183.4h-.51C1017.78,736.6,889.07,604.58,884,598.23c0,8.9-2,133.28-1.78,141.68Z"/><path class="a" d="M1135,626.21c0-5.35-.26-59-1.28-66.14,14.5,0,42.74-.26,64.87,2.54,82.92,10.43,93.1,47.32,93.1,65.12,0,78.86-100.23,111.67-158.22,111.67,1-11.7,1.53-74.79,1.53-81.65Zm22.89,90.8c69.44-6.1,108.87-47,108.87-82.66,0-38.67-43-56-108.87-55.2Z"/><path class="a" d="M1515.56,661.31c0,25.43.76,71,1,76.82H1491.9c.51-11.2.77-70.72.77-77.33V633.33c0-4.33-.77-67.16-1.27-73.26h25.43c-.51,4.58-1.27,43.24-1.27,73.77Z"/><path class="a" d="M1745,739.65c-7.63,1.53-19.33,2.55-34.59,2.55-86.74,0-108.37-51.89-108.37-75.3,0-41.71,38.41-94.87,128.21-110.9l3.81,21.37c-58.25,6.61-106.32,41.46-106.32,85.21,0,31,24.42,60.29,85.21,60.29a133.68,133.68,0,0,0,29.51-3.57Z"/><path class="a" d="M1913.39,740.67c-4.07,0-80.64-2.54-85.73-2.54.77-13.48.77-67.92.77-73.77V630.27c0-4.06-.51-65.11-.77-69.95,6.11,0,72.5-3.3,80.64-4.32l1,20.09c-8.14,0-53.93,1.28-58,1.28v63.84c4.58,0,37.14-1.27,49.6-2.8l.77,20.1c-5.6,0-45.28-1-50.37-1v62.07c6.11,0,40.19.76,61-.77Z"/><path class="b" d="M746.31,466.45c-60.25,0-90.54-28.59-90.54-61.27,0-42.21,43.57-79.65,117.77-90.89l-10.89-51.06C644.19,287.06,592.79,356.5,592.79,412.67c0,39.82,36.09,101.78,149.78,101.78a276.36,276.36,0,0,0,42.55-3.07l-3.41-48A204.67,204.67,0,0,1,746.31,466.45Z"/><path class="b" d="M961.1,263.23c-40.39,0-72.81,13.73-96.23,34.88a18.59,18.59,0,0,0-3.52-3.26l-34.94-24.67c-8.1-5.72-19.23-4-24.73,3.76l-2.78,3.94c-5.5,7.79-3.37,18.84,4.73,24.56l34.94,24.67a17.26,17.26,0,0,0,1.67,1.05,134.82,134.82,0,0,0-19,68.85c0,66,46.63,117.44,123.22,117.44,105.87,0,141.61-81.36,141.61-130C1086,306.8,1034.63,263.23,961.1,263.23ZM950.89,470.54c-38.46,0-66-28.94-66-76.93,0-52.77,31.66-86.47,71.49-86.47,36.08,0,66,26.9,65.69,79C1021.69,445.69,982.89,470.54,950.89,470.54Z"/><path class="b" d="M1283.8,307.48l-1.36-43.91c-26.55,1.37-112,5.11-132.07,5.11.68,8.51,1.36,90.55,1.36,96v45.27c0,8.17,0,81-1.7,99.06h59.56c-.68-4.76-.68-59.23-.68-64.68V414l69.44,1-1-42.55c-28.93,1-62.29,3.06-68.42,3.06V309.19Z"/><path class="b" d="M1487.7,307.48l-1.36-43.91c-26.56,1.37-112,5.11-132.08,5.11.68,8.51,1.36,90.55,1.36,96v45.27c0,8.17,0,81-1.7,99.06h59.57c-.68-4.76-.68-59.23-.68-64.68V414l69.44,1-1-42.55c-28.93,1-62.29,3.06-68.42,3.06V309.19Z"/><path class="b" d="M1616.71,466.79V408.58c7.14,0,55.14,1.36,63.31,1.36l-1-42.89c-15.66,1.37-55.83,3.07-62.29,3.07V308.17c5.78,0,62-1,73.52-1l-1.36-43.91c-11.57,1-115.73,5.45-130.37,5.45.34,8.51,1,90.55,1,96v45.62c0,7.82,0,80.67-1,98.71,13.27,0,128,3.4,137.18,3.4l-1.36-46.63C1673.55,467.47,1625.22,466.79,1616.71,466.79Z"/><path class="b" d="M1771.92,509c13.28,0,128,3.4,137.18,3.4l-1.36-46.63c-20.76,1.7-69.1,1-77.61,1V408.58c7.15,0,55.15,1.36,63.32,1.36l-1-42.89c-15.66,1.37-55.83,3.07-62.3,3.07V308.17c5.79,0,61.95-1,73.53-1l-1.36-43.91c-11.58,1-115.74,5.45-130.38,5.45.34,8.51,1,90.55,1,96v45.62C1772.94,418.11,1772.94,491,1771.92,509Z"/><rect class="b" x="13.26" y="324.5" width="132.23" height="68.89" rx="4.68" transform="translate(190.11 8.4) rotate(30)"/><path class="b" d="M306,260C172.8,260,64.79,368,64.79,501.27c0,133,107.61,240.84,240.51,241.24L288,658.07a159.15,159.15,0,1,1,37.3-.48l-18.7,84.92c133-.28,240.73-108.18,240.73-241.24C547.28,368,439.27,260,306,260Z"/><path class="c" d="M306,308.54c-106.44,0-192.72,86.28-192.72,192.73,0,102.82,80.53,186.82,182,192.41l-27.7-134.8H347L317.31,693.64c101.19-5.84,181.45-89.72,181.45-192.37C498.76,394.82,412.48,308.54,306,308.54Zm0,237.93a58.32,58.32,0,1,1,58.32-58.32A58.32,58.32,0,0,1,306,546.47Z"/></svg>