<svg id="Ebene_1" data-name="Ebene 1" xmlns="http://www.w3.org/2000/svg" viewBox="0 0 1860.85 1049.79"><defs><style>.cls-1{opacity:0.15;}.cls-2{fill:none;stroke:#000;stroke-miterlimit:10;}</style></defs><g id="Ellipse_4" data-name="Ellipse 4" class="cls-1"><ellipse class="cls-2" cx="403.04" cy="234.73" rx="54.5" ry="54"/><ellipse class="cls-2" cx="403.04" cy="234.73" rx="54" ry="53.5"/></g><g id="Ellipse_31" data-name="Ellipse 31" class="cls-1"><circle class="cls-2" cx="54.69" cy="502.78" r="54.18"/><circle class="cls-2" cx="54.69" cy="502.78" r="53.68"/></g><g id="Ellipse_45" data-name="Ellipse 45" class="cls-1"><circle class="cls-2" cx="1035.5" cy="756.92" r="54.2"/><circle class="cls-2" cx="1035.5" cy="756.92" r="53.7"/></g><g id="Ellipse_17" data-name="Ellipse 17" class="cls-1"><circle class="cls-2" cx="1304.36" cy="235.2" r="54.18"/><circle class="cls-2" cx="1304.36" cy="235.2" r="53.68"/></g><g id="Ellipse_18" data-name="Ellipse 18" class="cls-1"><circle class="cls-2" cx="896.23" cy="922.37" r="54.19"/><circle class="cls-2" cx="896.23" cy="922.37" r="53.69"/></g><g id="Ellipse_32" data-name="Ellipse 32" class="cls-1"><circle class="cls-2" cx="1805.57" cy="226.68" r="54.18"/><circle class="cls-2" cx="1805.57" cy="226.68" r="53.68"/></g><g id="Ellipse_5" data-name="Ellipse 5" class="cls-1"><circle class="cls-2" cx="562.54" cy="146.73" r="82"/><circle class="cls-2" cx="562.54" cy="146.73" r="81.5"/></g><g id="Ellipse_28" data-name="Ellipse 28" class="cls-1"><circle class="cls-2" cx="268.07" cy="517.28" r="82.04"/><circle class="cls-2" cx="268.07" cy="517.28" r="81.54"/></g><g id="Ellipse_42" data-name="Ellipse 42" class="cls-1"><circle class="cls-2" cx="1118.84" cy="576.51" r="82.08"/><circle class="cls-2" cx="1118.84" cy="576.51" r="81.58"/></g><g id="Ellipse_12" data-name="Ellipse 12" class="cls-1"><circle class="cls-2" cx="1136.09" cy="367.18" r="82.04"/><circle class="cls-2" cx="1136.09" cy="367.18" r="81.54"/></g><g id="Ellipse_19" data-name="Ellipse 19" class="cls-1"><circle class="cls-2" cx="687.14" cy="967.21" r="82.06"/><circle class="cls-2" cx="687.14" cy="967.21" r="81.56"/></g><g id="Ellipse_33" data-name="Ellipse 33" class="cls-1"><circle class="cls-2" cx="1763.34" cy="414.02" r="82.04"/><circle class="cls-2" cx="1763.34" cy="414.02" r="81.54"/></g><g id="Ellipse_6" data-name="Ellipse 6" class="cls-1"><ellipse class="cls-2" cx="516.04" cy="288.73" rx="30.5" ry="31"/><ellipse class="cls-2" cx="516.04" cy="288.73" rx="30" ry="30.5"/></g><g id="Ellipse_6-2" data-name="Ellipse 6" class="cls-1"><ellipse class="cls-2" cx="303.17" cy="289.72" rx="22.64" ry="23.01"/><ellipse class="cls-2" cx="303.17" cy="289.72" rx="22.26" ry="22.64"/></g><g id="Ellipse_6-3" data-name="Ellipse 6" class="cls-1"><ellipse class="cls-2" cx="1413.17" cy="197.72" rx="22.64" ry="23.01"/><ellipse class="cls-2" cx="1413.17" cy="197.72" rx="22.26" ry="22.64"/></g><g id="Ellipse_43" data-name="Ellipse 43" class="cls-1"><circle class="cls-2" cx="1180.75" cy="728.82" r="30.97"/><circle class="cls-2" cx="1180.75" cy="728.82" r="30.47"/></g><g id="Ellipse_15" data-name="Ellipse 15" class="cls-1"><circle class="cls-2" cx="1180.81" cy="214.27" r="30.96"/><circle class="cls-2" cx="1180.81" cy="214.27" r="30.46"/></g><g id="Ellipse_20" data-name="Ellipse 20" class="cls-1"><circle class="cls-2" cx="794.36" cy="849.4" r="30.97"/><circle class="cls-2" cx="794.36" cy="849.4" r="30.47"/></g><g id="Ellipse_34" data-name="Ellipse 34" class="cls-1"><circle class="cls-2" cx="1665.55" cy="302.41" r="30.96"/><circle class="cls-2" cx="1665.55" cy="302.41" r="30.46"/></g><g id="Ellipse_7" data-name="Ellipse 7" class="cls-1"><circle class="cls-2" cx="454.04" cy="422.23" r="61.5"/><circle class="cls-2" cx="454.04" cy="422.23" r="61"/></g><g id="Ellipse_30" data-name="Ellipse 30" class="cls-1"><circle class="cls-2" cx="62.5" cy="667.51" r="61.92"/><circle class="cls-2" cx="62.5" cy="667.51" r="61.42"/></g><g id="Ellipse_44" data-name="Ellipse 44" class="cls-1"><circle class="cls-2" cx="1180.35" cy="886.18" r="61.95"/><circle class="cls-2" cx="1180.35" cy="886.18" r="61.45"/></g><g id="Ellipse_16" data-name="Ellipse 16" class="cls-1"><circle class="cls-2" cx="1203.64" cy="69.24" r="61.92"/><circle class="cls-2" cx="1203.64" cy="69.24" r="61.42"/></g><g id="Ellipse_21" data-name="Ellipse 21" class="cls-1"><circle class="cls-2" cx="878.45" cy="729.04" r="61.93"/><circle class="cls-2" cx="878.45" cy="729.04" r="61.43"/></g><g id="Ellipse_35" data-name="Ellipse 35" class="cls-1"><circle class="cls-2" cx="1653.71" cy="167.35" r="61.92"/><circle class="cls-2" cx="1653.71" cy="167.35" r="61.42"/></g><g id="Ellipse_8" data-name="Ellipse 8" class="cls-1"><circle class="cls-2" cx="740.04" cy="414.23" r="145.5"/><circle class="cls-2" cx="740.04" cy="414.23" r="145"/></g><g id="Ellipse_22" data-name="Ellipse 22" class="cls-1"><circle class="cls-2" cx="240.89" cy="830.42" r="145.51"/><circle class="cls-2" cx="240.89" cy="830.42" r="145.01"/></g><g id="Ellipse_36" data-name="Ellipse 36" class="cls-1"><circle class="cls-2" cx="1427.06" cy="726" r="145.57"/><circle class="cls-2" cx="1427.06" cy="726" r="145.07"/></g><g id="Ellipse_11" data-name="Ellipse 11" class="cls-1"><circle class="cls-2" cx="920.93" cy="150.3" r="145.5"/><circle class="cls-2" cx="920.93" cy="150.3" r="145"/></g><g id="Ellipse_23" data-name="Ellipse 23" class="cls-1"><circle class="cls-2" cx="597.83" cy="709.93" r="145.54"/><circle class="cls-2" cx="597.83" cy="709.93" r="145.04"/></g><g id="Ellipse_37" data-name="Ellipse 37" class="cls-1"><circle class="cls-2" cx="1460.76" cy="389.31" r="145.5"/><circle class="cls-2" cx="1460.76" cy="389.31" r="145"/></g><g id="Ellipse_9" data-name="Ellipse 9" class="cls-1"><circle class="cls-2" cx="692.54" cy="201.73" r="48"/><circle class="cls-2" cx="692.54" cy="201.73" r="47.5"/></g><g id="Ellipse_26" data-name="Ellipse 26" class="cls-1"><circle class="cls-2" cx="360.49" cy="624.37" r="47.99"/><circle class="cls-2" cx="360.49" cy="624.37" r="47.49"/></g><g id="Ellipse_40" data-name="Ellipse 40" class="cls-1"><circle class="cls-2" cx="1297.22" cy="557.43" r="48.01"/><circle class="cls-2" cx="1297.22" cy="557.43" r="47.51"/></g><g id="Ellipse_13" data-name="Ellipse 13" class="cls-1"><circle class="cls-2" cx="995.75" cy="349.46" r="47.99"/><circle class="cls-2" cx="995.75" cy="349.46" r="47.49"/></g><g id="Ellipse_24" data-name="Ellipse 24" class="cls-1"><circle class="cls-2" cx="485.76" cy="894.78" r="48"/><circle class="cls-2" cx="485.76" cy="894.78" r="47.5"/></g><g id="Ellipse_38" data-name="Ellipse 38" class="cls-1"><circle class="cls-2" cx="1631.98" cy="515.59" r="47.99"/><circle class="cls-2" cx="1631.98" cy="515.59" r="47.49"/></g><g id="Ellipse_10" data-name="Ellipse 10" class="cls-1"><circle class="cls-2" cx="742.04" cy="72.23" r="32.5"/><circle class="cls-2" cx="742.04" cy="72.23" r="32"/></g><g id="Ellipse_27" data-name="Ellipse 27" class="cls-1"><circle class="cls-2" cx="462" cy="529.22" r="32.51"/><circle class="cls-2" cx="462" cy="529.22" r="32.01"/></g><g id="Ellipse_27-2" data-name="Ellipse 27" class="cls-1"><circle class="cls-2" cx="318" cy="374.22" r="32.51"/><circle class="cls-2" cx="318" cy="374.22" r="32.01"/></g><g id="Ellipse_4-2" data-name="Ellipse 4" class="cls-1"><ellipse class="cls-2" cx="251.12" cy="217.46" rx="54" ry="54.5" transform="matrix(0.54, -0.84, 0.84, 0.54, -108.74, 293.7)"/><ellipse class="cls-2" cx="251.12" cy="217.46" rx="53.5" ry="54" transform="translate(-108.74 293.7) rotate(-57.29)"/></g><g id="Ellipse_4-3" data-name="Ellipse 4" class="cls-1"><ellipse class="cls-2" cx="437.29" cy="72.23" rx="54.5" ry="54" transform="translate(-8.62 235.33) rotate(-33.44)"/><ellipse class="cls-2" cx="437.29" cy="72.23" rx="54" ry="53.5" transform="translate(-8.62 235.33) rotate(-33.44)"/></g><g id="Ellipse_6-4" data-name="Ellipse 6" class="cls-1"><ellipse class="cls-2" cx="344.25" cy="168.14" rx="22.64" ry="23.01" transform="translate(-76.87 199.94) rotate(-33.44)"/><ellipse class="cls-2" cx="344.25" cy="168.14" rx="22.26" ry="22.64" transform="translate(-76.87 199.94) rotate(-33.44)"/></g><g id="Ellipse_4-4" data-name="Ellipse 4" class="cls-1"><ellipse class="cls-2" cx="159.94" cy="72.56" rx="54.5" ry="54" transform="translate(-42.1 -15.53) rotate(-0.73)"/><ellipse class="cls-2" cx="159.94" cy="72.56" rx="54" ry="53.5" transform="translate(-42.1 -15.53) rotate(-0.73)"/></g><g id="Ellipse_6-5" data-name="Ellipse 6" class="cls-1"><ellipse class="cls-2" cx="137.37" cy="209.78" rx="23.01" ry="22.64" transform="translate(-154.56 194.45) rotate(-57.29)"/><ellipse class="cls-2" cx="137.37" cy="209.78" rx="22.64" ry="22.26" transform="translate(-154.56 194.45) rotate(-57.29)"/></g><g id="Ellipse_7-2" data-name="Ellipse 7" class="cls-1"><circle class="cls-2" cx="151.53" cy="385.22" r="61.5"/><circle class="cls-2" cx="151.53" cy="385.22" r="61"/></g><g id="Ellipse_27-3" data-name="Ellipse 27" class="cls-1"><circle class="cls-2" cx="63" cy="271.32" r="32.51"/><circle class="cls-2" cx="63" cy="271.32" r="32.01"/></g><g id="Ellipse_4-5" data-name="Ellipse 4" class="cls-1"><ellipse class="cls-2" cx="1386.77" cy="981.35" rx="54.5" ry="54" transform="matrix(0.62, -0.79, 0.79, 0.62, -281.24, 1453.31)"/><ellipse class="cls-2" cx="1386.77" cy="981.35" rx="54" ry="53.5" transform="matrix(0.62, -0.79, 0.79, 0.62, -281.24, 1453.31)"/></g><g id="Ellipse_4-6" data-name="Ellipse 4" class="cls-1"><ellipse class="cls-2" cx="1819.5" cy="764.16" rx="54.5" ry="54" transform="translate(-191.56 627.65) rotate(-19.33)"/><ellipse class="cls-2" cx="1819.5" cy="764.16" rx="54" ry="53.5" transform="translate(-191.56 627.65) rotate(-19.33)"/></g><g id="Ellipse_4-7" data-name="Ellipse 4" class="cls-1"><ellipse class="cls-2" cx="1847.54" cy="606.04" rx="54.5" ry="54" transform="translate(1056.2 2382.34) rotate(-85.47)"/><ellipse class="cls-2" cx="1847.54" cy="606.04" rx="54" ry="53.5" transform="translate(1056.2 2382.34) rotate(-85.47)"/></g><g id="Ellipse_6-6" data-name="Ellipse 6" class="cls-1"><ellipse class="cls-2" cx="1756.92" cy="675.4" rx="22.64" ry="23.01" transform="translate(903.6 2355.88) rotate(-85.47)"/><ellipse class="cls-2" cx="1756.92" cy="675.4" rx="22.26" ry="22.64" transform="translate(903.6 2355.88) rotate(-85.47)"/></g><g id="Ellipse_4-8" data-name="Ellipse 4" class="cls-1"><ellipse class="cls-2" cx="1677.17" cy="824.89" rx="54.5" ry="54" transform="translate(-35.65 1643.38) rotate(-52.76)"/><ellipse class="cls-2" cx="1677.17" cy="824.89" rx="54" ry="53.5" transform="translate(-35.65 1643.38) rotate(-52.76)"/></g><g id="Ellipse_6-7" data-name="Ellipse 6" class="cls-1"><ellipse class="cls-2" cx="1591.66" cy="928.37" rx="23.01" ry="22.64" transform="translate(-272.38 1179.95) rotate(-38.65)"/><ellipse class="cls-2" cx="1591.66" cy="928.37" rx="22.64" ry="22.26" transform="translate(-272.38 1179.95) rotate(-38.65)"/></g><g id="Ellipse_27-4" data-name="Ellipse 27" class="cls-1"><circle class="cls-2" cx="1493.74" cy="975.15" r="32.51"/><circle class="cls-2" cx="1493.74" cy="975.15" r="32.01"/></g><g id="Ellipse_41" data-name="Ellipse 41" class="cls-1"><circle class="cls-2" cx="1267.93" cy="421.4" r="32.52"/><circle class="cls-2" cx="1267.93" cy="421.4" r="32.02"/></g><g id="Ellipse_14" data-name="Ellipse 14" class="cls-1"><circle class="cls-2" cx="983.97" cy="488.1" r="32.51"/><circle class="cls-2" cx="983.97" cy="488.1" r="32.01"/></g><g id="Ellipse_39" data-name="Ellipse 39" class="cls-1"><circle class="cls-2" cx="1631.61" cy="638.27" r="32.51"/><circle class="cls-2" cx="1631.61" cy="638.27" r="32.01"/></g><g id="Ellipse_38-2" data-name="Ellipse 38" class="cls-1"><circle class="cls-2" cx="1750.52" cy="994.45" r="47.99"/><circle class="cls-2" cx="1750.52" cy="994.45" r="47.49"/></g><g id="Ellipse_6-8" data-name="Ellipse 6" class="cls-1"><ellipse class="cls-2" cx="1722.89" cy="912.19" rx="22.64" ry="23.01" transform="translate(-4.17 1873.54) rotate(-58.04)"/><ellipse class="cls-2" cx="1722.89" cy="912.19" rx="22.26" ry="22.64" transform="translate(-4.17 1873.54) rotate(-58.04)"/></g><g id="Ellipse_39-2" data-name="Ellipse 39" class="cls-1"><circle class="cls-2" cx="1807.36" cy="885.72" r="32.51"/><circle class="cls-2" cx="1807.36" cy="885.72" r="32.01"/></g></svg>