<svg id="Ebene_1" data-name="Ebene 1" xmlns="http://www.w3.org/2000/svg" viewBox="0 0 1438.92 1020.54"><defs><style>.cls-1{fill:silver;}</style></defs><path class="cls-1" d="M1098.76,318.39a82.64,82.64,0,0,1-23.38-17.46c-15.92-16.75-25.31-37-30.74-59.13-7.65-31.32-6.67-62.63.95-93.81,7-28.81,19.31-55.1,38.74-77.71,16.19-18.82,35.49-33,60.2-38.67a76.21,76.21,0,0,1,28.48-1c2.32.34,3.39,1.27,4,3.64,7,29.81,4,58.94-5.85,87.59-7.9,22.87-20.45,43.14-34.7,62.53-15.5,21.07-27.6,43.93-34.54,69.3-5.59,20.45-7.19,41.12-3.28,62.08A26.06,26.06,0,0,1,1098.76,318.39Z" transform="translate(-240.54 -29.73)"/><path class="cls-1" d="M1194.26,37.35a81.64,81.64,0,0,1,21,14.45c17.23,16.22,27.47,36.5,33.58,59,16,59.09.59,129-38.9,175.65-15.2,17.95-33.56,31.46-56.66,37.68a81.09,81.09,0,0,1-32.42,1.73,4.71,4.71,0,0,1-4.54-4c-6-22-4.67-43.83,1.49-65.53,6.88-24.22,19.06-45.74,33.94-65.84,16.44-22.21,29.68-46.05,37.5-72.7,7.41-25.27,9.58-50.91,5.22-77C1194.36,39.87,1194.37,38.88,1194.26,37.35Z" transform="translate(-240.54 -29.73)"/><path class="cls-1" d="M871,216.57a59.47,59.47,0,0,1-11.12-17.88c-6.29-15.44-7.29-31.49-5.1-47.82,3.09-23.06,12-43.84,25.3-62.79,12.31-17.52,27.47-31.95,46.48-42,15.83-8.4,32.54-12.87,50.63-10.16a55.25,55.25,0,0,1,19.4,6.82,3,3,0,0,1,1.69,3.49c-3.17,21.86-12.78,40.67-27,57.33-11.32,13.29-25.08,23.61-39.77,32.89-15.95,10.08-30.1,22.26-41.43,37.49-9.14,12.27-15.65,25.74-18.54,40.85A18.24,18.24,0,0,1,871,216.57Z" transform="translate(-240.54 -29.73)"/><path class="cls-1" d="M1009.12,52.83a59.18,59.18,0,0,1,10.35,15.25c7.31,15.43,8.86,31.75,7,48.47-4.77,43.93-33.53,86.85-72.34,107.81-14.93,8.07-30.83,12.32-48,10.42a58.55,58.55,0,0,1-22.24-7.36,3.41,3.41,0,0,1-2-3.86c1.72-16.38,8.39-30.68,18.24-43.65,11-14.47,24.84-25.72,40.13-35.32,16.89-10.6,32.06-23.14,44.32-39,11.63-15,19.83-31.69,23.76-50.37C1008.53,54.55,1008.79,53.88,1009.12,52.83Z" transform="translate(-240.54 -29.73)"/><path class="cls-1" d="M614.51,369a47.5,47.5,0,0,1,7.08-15.2c7.56-10.93,17.84-18.59,29.68-24.24,16.73-8,34.47-11.1,52.91-10.47,17.05.58,33.28,4.4,48.29,12.69,12.49,6.91,22.76,16.11,28.82,29.35A43.94,43.94,0,0,1,785.2,377a2.35,2.35,0,0,1-1.6,2.65c-16,7.41-32.69,9.19-50,7-13.8-1.76-26.68-6.44-39.27-12.19-13.67-6.25-28-10.39-43.06-11.31A78.8,78.8,0,0,0,616,368.58,13.35,13.35,0,0,1,614.51,369Z" transform="translate(-240.54 -29.73)"/><path class="cls-1" d="M783.9,389.77a47,47,0,0,1-5.67,13.55c-7.11,11.6-17.32,19.74-29.27,25.82-31.37,15.95-72.54,15.46-103.43-1.3-11.88-6.44-21.64-15.2-27.85-27.47a46.8,46.8,0,0,1-4.78-18,2.72,2.72,0,0,1,1.7-3c11.68-6,24.13-7.77,37.06-6.85,14.44,1,28,5.36,41,11.38,14.43,6.65,29.4,11.31,45.32,12.58a98,98,0,0,0,44-6.09C782.49,390.13,783.05,390,783.9,389.77Z" transform="translate(-240.54 -29.73)"/><path class="cls-1" d="M1086.53,461.73a83,83,0,0,1-21.71,19.49c-19.56,12.32-41.22,17.56-64,18.51-32.22,1.36-62.72-5.77-91.8-19.36-26.86-12.56-50.23-29.76-68.57-53.26-15.28-19.57-25.42-41.29-26.09-66.62A76.48,76.48,0,0,1,819,332.37c.8-2.21,1.92-3.08,4.36-3.16,30.58-.95,58.58,7.62,84.72,23,20.87,12.24,38.28,28.53,54.49,46.32,17.61,19.33,37.65,35.69,61.17,47.48,18.94,9.5,38.9,15.13,60.22,15.42A24.2,24.2,0,0,1,1086.53,461.73Z" transform="translate(-240.54 -29.73)"/><path class="cls-1" d="M829.74,312.86a81.63,81.63,0,0,1,18.31-17.81c19.29-13.7,41.18-19.76,64.44-21.32,61.08-4.11,126.6,24.77,164.58,72.66,14.61,18.43,24.24,39.09,25.8,63a81.15,81.15,0,0,1-4.67,32.13c-.84,2.44-2.11,3.49-4.78,3.67-22.77,1.61-43.89-4-64-14.34-22.4-11.5-41.1-27.68-57.88-46.22-18.55-20.49-39.32-38.16-63.91-51-23.33-12.24-48-19.41-74.47-20.26C832.23,313.25,831.26,313.05,829.74,312.86Z" transform="translate(-240.54 -29.73)"/><path class="cls-1" d="M533.64,191.89a82.75,82.75,0,0,1,7-28.32c9.26-21.17,24.24-37.68,42.57-51.28C609.11,93.08,638.35,81.84,670,76.75c29.28-4.7,58.27-3.59,86.65,5.55,23.63,7.61,44.23,19.88,59,40.47a76.25,76.25,0,0,1,12,25.86c.58,2.27.14,3.62-1.83,5.05-24.77,18-52.75,26.6-83,28.61-24.15,1.59-47.7-2.1-71.1-7.72-25.43-6.1-51.2-8.38-77.28-4.93-21,2.79-40.68,9.34-58.48,21.07A24,24,0,0,1,533.64,191.89Z" transform="translate(-240.54 -29.73)"/><path class="cls-1" d="M829.71,170.82a81.83,81.83,0,0,1-5.15,25c-8.26,22.17-23,39.48-41.34,53.84-48.23,37.7-118.66,50.61-177,32.32-22.43-7-42-18.72-56.7-37.59a81.19,81.19,0,0,1-14.19-29.21c-.67-2.49-.21-4.07,1.89-5.72,17.94-14.12,38.58-21.32,61-24.06,25-3.07,49.56-.19,73.86,5.73,26.85,6.53,54,9.48,81.55,6.34,26.17-3,50.64-10.93,73-25.07C827.43,171.9,828.34,171.52,829.71,170.82Z" transform="translate(-240.54 -29.73)"/><path class="cls-1" d="M1372.54,408.21a82.76,82.76,0,0,1,7-28.32c9.26-21.17,24.23-37.67,42.57-51.28,25.89-19.21,55.13-30.45,86.82-35.54,29.28-4.7,58.27-3.59,86.65,5.55,23.63,7.62,44.22,19.89,59,40.47a76.13,76.13,0,0,1,12,25.86c.59,2.28.15,3.62-1.83,5.05-24.77,18-52.74,26.61-83,28.61-24.14,1.59-47.69-2.1-71.09-7.71-25.43-6.1-51.2-8.39-77.28-4.93-21,2.78-40.68,9.33-58.48,21.06A23.27,23.27,0,0,1,1372.54,408.21Z" transform="translate(-240.54 -29.73)"/><path class="cls-1" d="M1668.62,387.14a81.83,81.83,0,0,1-5.15,25c-8.27,22.17-23,39.48-41.34,53.84-48.23,37.7-118.66,50.61-177,32.32-22.43-7-42-18.72-56.71-37.59a81.25,81.25,0,0,1-14.18-29.21c-.67-2.49-.21-4.07,1.89-5.72,17.94-14.12,38.58-21.32,61-24.06,25-3.06,49.56-.18,73.86,5.73,26.84,6.53,54,9.48,81.54,6.34,26.18-3,50.65-10.93,73-25.07C1666.34,388.22,1667.25,387.84,1668.62,387.14Z" transform="translate(-240.54 -29.73)"/><path class="cls-1" d="M1297.08,169.63a65.94,65.94,0,0,1,12.27-19.69c12.21-13.74,27.59-22.53,44.8-28.31,24.3-8.16,49.18-9.47,74.39-5.52,23.3,3.65,44.94,11.62,64.15,25.51,16,11.56,28.55,25.91,34.67,45.1a60.72,60.72,0,0,1,2.69,22.5,3.23,3.23,0,0,1-2.63,3.37c-23.15,7.5-46.42,7.15-69.78,1.22-18.65-4.73-35.55-13.31-51.87-23.31-17.72-10.87-36.65-18.93-57.21-22.73-16.58-3.07-33.06-3-49.41,1.54A19.68,19.68,0,0,1,1297.08,169.63Z" transform="translate(-240.54 -29.73)"/><path class="cls-1" d="M1526.14,226.51a65.2,65.2,0,0,1-10.05,17.65c-11.7,14.73-27.08,24.2-44.5,30.54-45.74,16.65-102.17,9.09-141.76-19.08-15.24-10.84-27.17-24.49-33.64-42.37a64.65,64.65,0,0,1-3.54-25.58,3.75,3.75,0,0,1,2.83-3.86c17-6.26,34.42-6.63,52-3.2,19.65,3.83,37.51,12,54.43,22.5,18.69,11.54,38.47,20.44,60.1,24.85,20.53,4.18,41,4.19,61.36-1C1524.15,226.76,1524.93,226.7,1526.14,226.51Z" transform="translate(-240.54 -29.73)"/><path class="cls-1" d="M1125.61,429.48a65.55,65.55,0,0,1,12.27-19.69c12.2-13.74,27.59-22.53,44.8-28.31,24.3-8.16,49.17-9.47,74.38-5.52,23.3,3.65,45,11.62,64.16,25.51,16,11.56,28.55,25.91,34.66,45.1a60.53,60.53,0,0,1,2.69,22.5,3.24,3.24,0,0,1-2.62,3.37c-23.15,7.5-46.43,7.15-69.79,1.22-18.64-4.73-35.54-13.31-51.86-23.31-17.73-10.87-36.65-18.93-57.22-22.73-16.57-3.07-33.06-2.95-49.4,1.54A20.57,20.57,0,0,1,1125.61,429.48Z" transform="translate(-240.54 -29.73)"/><path class="cls-1" d="M1354.66,486.36a64.91,64.91,0,0,1-10,17.65c-11.71,14.73-27.08,24.2-44.5,30.54-45.74,16.65-102.17,9.09-141.77-19.08-15.23-10.84-27.16-24.49-33.63-42.37a64.48,64.48,0,0,1-3.55-25.58,3.77,3.77,0,0,1,2.84-3.86c17-6.26,34.41-6.63,52-3.2,19.65,3.83,37.52,12.05,54.43,22.5,18.7,11.54,38.47,20.44,60.11,24.85,20.52,4.18,41,4.19,61.35-1C1352.67,486.61,1353.46,486.55,1354.66,486.36Z" transform="translate(-240.54 -29.73)"/><path class="cls-1" d="M1241.18,287.49a39.53,39.53,0,0,1,10-9.8c9.13-6.3,19.43-9.25,30.35-10.17,15.44-1.3,30.23,1.51,44.46,7.45,13.15,5.48,24.71,13.27,34,24.18,7.73,9.09,13,19.31,13.87,31.46a36.67,36.67,0,0,1-1.66,13.59,2,2,0,0,1-2,1.6c-14.67,1.07-28.27-2.48-41.13-9.31-10.27-5.46-19-12.92-27.09-21.14a101.19,101.19,0,0,0-30.32-21.56,65.89,65.89,0,0,0-29.21-6.19A12.17,12.17,0,0,1,1241.18,287.49Z" transform="translate(-240.54 -29.73)"/><path class="cls-1" d="M1367.43,353.78a39,39,0,0,1-8.43,8.91c-9,7-19.37,10.32-30.5,11.54-29.24,3.2-61.27-9.35-80.46-31.57-7.38-8.55-12.43-18.27-13.65-29.7a39,39,0,0,1,1.59-15.52,2.28,2.28,0,0,1,2.22-1.86c10.9-1.23,21.15,1.06,31,5.6,11,5.07,20.29,12.46,28.72,21,9.31,9.46,19.64,17.52,31.7,23.22a81.85,81.85,0,0,0,36.15,8.23C1366.23,353.64,1366.7,353.72,1367.43,353.78Z" transform="translate(-240.54 -29.73)"/><path class="cls-1" d="M245.76,472.71a45.66,45.66,0,0,1-4.32-13.25c-2.34-13.7,0-26.83,5.27-39.49,9.4-22.66,25.09-40.05,45.57-53.23,13.48-8.67,28.11-14.36,44.21-15.71,12.9-1.08,25.2.83,36.25,8,2.65,1.72,4.93,4,7.42,6,1.27,1,1.18,2,.57,3.37A88.33,88.33,0,0,1,355,401.27c-12.48,10.08-26.7,16.77-42,21.33C298.22,427,284.19,433,271.68,442.28c-10.62,7.84-19.32,17.34-25.2,29.27C246.34,471.83,246.15,472.09,245.76,472.71Z" transform="translate(-240.54 -29.73)"/><path class="cls-1" d="M387.72,375.64a45.29,45.29,0,0,1,5.16,16.71c1.82,15-1.59,29-8.11,42.32-11.07,22.6-28,39.63-50,51.73-12.64,7-26.12,11.33-40.64,11.85-13.74.5-26.6-2.33-37.28-11.53-6.08-5.23-5.6-3.39-2.19-10.64,6.41-13.64,17.06-23.41,29.72-31.16,10-6.12,20.84-10.27,32-13.66,24.67-7.47,46.08-20,62-40.79,1.74-2.27,3.34-4.66,4.86-7.07S386.1,378.46,387.72,375.64Z" transform="translate(-240.54 -29.73)"/><path class="cls-1" d="M415.12,413.06a45.32,45.32,0,0,1,.82-13.91c2.81-13.61,9.81-25,19.31-34.84,17-17.66,38-28.13,61.85-32.92,15.72-3.16,31.42-3.11,46.9,1.51,12.4,3.7,23.16,10,30.82,20.69,1.84,2.58,3.13,5.54,4.73,8.28.82,1.39.37,2.29-.7,3.34a88.33,88.33,0,0,1-35.94,21.23c-15.3,4.82-31,5.87-46.87,4.52-15.4-1.3-30.67-.8-45.68,3.23-12.75,3.42-24.32,9.09-34.15,18.06C416,412.46,415.71,412.63,415.12,413.06Z" transform="translate(-240.54 -29.73)"/><path class="cls-1" d="M582.71,374.51A45.5,45.5,0,0,1,581.42,392c-3.77,14.59-12.06,26.42-23,36.44-18.55,17-40.58,26.66-65.44,29.9-14.31,1.87-28.45,1-42.16-3.79-13-4.56-23.92-11.89-30.51-24.35-3.75-7.09-4-5.2,1.85-10.71,10.95-10.35,24.43-15.57,39-18.16,11.54-2,23.15-1.95,34.8-1,25.7,2.05,50.19-1.78,72.59-15.36,2.44-1.48,4.8-3.12,7.1-4.81S580.17,376.54,582.71,374.51Z" transform="translate(-240.54 -29.73)"/><path class="cls-1" d="M351.81,294.35a45.31,45.31,0,0,1,.81-13.91c2.82-13.61,9.81-25,19.32-34.84,17-17.67,38-28.13,61.85-32.93,15.72-3.16,31.41-3.11,46.9,1.52,12.4,3.7,23.15,10,30.82,20.69,1.84,2.57,3.12,5.53,4.73,8.28.81,1.39.36,2.29-.71,3.34a88.27,88.27,0,0,1-35.93,21.22c-15.3,4.83-31,5.87-46.87,4.53-15.4-1.3-30.67-.81-45.69,3.23-12.74,3.42-24.32,9.09-34.14,18C352.67,293.75,352.39,293.91,351.81,294.35Z" transform="translate(-240.54 -29.73)"/><path class="cls-1" d="M519.39,255.8a45.32,45.32,0,0,1-1.28,17.44c-3.77,14.59-12.07,26.41-23,36.43-18.56,17-40.58,26.67-65.45,29.91-14.31,1.87-28.44,1-42.15-3.8-13-4.55-23.92-11.88-30.51-24.34-3.75-7.09-4-5.21,1.85-10.71,10.95-10.36,24.43-15.57,39-18.16,11.55-2,23.16-1.95,34.81-1,25.7,2,50.19-1.77,72.59-15.36,2.44-1.48,4.8-3.11,7.1-4.8S516.86,257.83,519.39,255.8Z" transform="translate(-240.54 -29.73)"/><path class="cls-1" d="M867.94,848.85a77.54,77.54,0,0,1,3.47-24.54c6.53-21.72,19.35-39.36,35.73-54.64,44.82-41.8,117.55-60.81,176.47-46,21.76,5.46,41.35,15,57,31.51a79.62,79.62,0,0,1,17.64,29.21c.82,2.36.53,3.76-1.45,5.42C1135,808,1109.8,818.47,1082,823.2c-25.12,4.29-50.13,2.82-75.13-1.39-27.15-4.58-54.32-5.26-81.42.55C904.61,826.84,885.46,835.08,867.94,848.85Z" transform="translate(-240.54 -29.73)"/><path class="cls-1" d="M1162,806.48a85,85,0,0,1-6.85,35.38c-11.21,26.6-30.21,46.65-54.05,62.11-43,27.93-90.12,39.21-141.11,31.86-24.45-3.53-46.88-12.38-65.56-29.19a80.13,80.13,0,0,1-23.15-35.4,4.33,4.33,0,0,1,1.39-5.26C889,850.84,908.53,842.34,930,837.85c24.31-5.08,48.72-4.43,73.05-.35,26.43,4.43,52.87,6.13,79.48,1.91,28.22-4.48,54.17-14.5,77.28-31.51C1160.35,807.51,1160.92,807.18,1162,806.48Z" transform="translate(-240.54 -29.73)"/><path class="cls-1" d="M1043.68,987.09a44.3,44.3,0,0,1,2-13.88c3.69-12.27,10.94-22.24,20.2-30.87,25.33-23.63,66.43-34.37,99.73-26,12.3,3.09,23.37,8.49,32.24,17.81a45.15,45.15,0,0,1,10,16.51,2.35,2.35,0,0,1-.83,3.06c-12.32,10.28-26.58,16.21-42.29,18.89-14.2,2.42-28.33,1.59-42.46-.79-15.34-2.58-30.7-3-46,.32A77.74,77.74,0,0,0,1043.68,987.09Z" transform="translate(-240.54 -29.73)"/><path class="cls-1" d="M1209.86,963.14a48,48,0,0,1-3.87,20c-6.33,15-17.07,26.36-30.55,35.1-24.32,15.78-50.93,22.16-79.75,18-13.82-2-26.49-7-37-16.5a45.23,45.23,0,0,1-13.08-20,2.44,2.44,0,0,1,.78-3c9.22-8.56,20.28-13.37,32.43-15.9,13.74-2.87,27.53-2.5,41.28-.2,14.94,2.51,29.88,3.47,44.92,1.08,16-2.53,30.62-8.19,43.67-17.81C1208.94,963.72,1209.26,963.53,1209.86,963.14Z" transform="translate(-240.54 -29.73)"/><path class="cls-1" d="M884.26,981.85a35.87,35.87,0,0,1,6-9.72c6.79-8,15.48-13,25.24-16.44,26.7-9.33,61-3.85,83.09,13.34,8.18,6.35,14.68,14,18.24,23.91a36.81,36.81,0,0,1,2,15.61,1.94,1.94,0,0,1-1.62,2c-12.6,3.63-25.2,3.38-37.82.22-11.41-2.86-21.7-8.13-31.48-14.55-10.62-7-22-12.31-34.5-14.89A63.59,63.59,0,0,0,884.26,981.85Z" transform="translate(-240.54 -29.73)"/><path class="cls-1" d="M1016.34,1018.58a39.3,39.3,0,0,1-9.47,13.67c-9.68,9.16-21.43,14.1-34.37,16.2-23.37,3.8-45.35-.18-65.52-12.76-9.68-6-17.5-13.94-22.27-24.51a37,37,0,0,1-3.21-19.25,2,2,0,0,1,1.57-2c9.7-3.37,19.54-3.33,29.46-1.23,11.21,2.37,21.4,7.18,30.92,13.43,10.34,6.78,21.19,12.41,33.22,15.57a80.34,80.34,0,0,0,38.49,1Z" transform="translate(-240.54 -29.73)"/><path class="cls-1" d="M1487,732.17a67.15,67.15,0,0,1-9.7-21.66c-4.68-18.21-3.36-36.28,1.57-54.19,7-25.28,20.05-47.14,37.8-66.28,16.41-17.68,35.53-31.5,58.29-39.87,19-7,38.3-9.43,58.08-3.65a62,62,0,0,1,20.63,10.57,3.3,3.3,0,0,1,1.36,4.15c-6.86,23.93-20.45,43.48-38.83,59.92-14.66,13.12-31.6,22.56-49.4,30.69-19.35,8.84-37,20.29-52,35.57-12.06,12.32-21.39,26.37-26.9,42.81C1487.7,730.8,1487.37,731.32,1487,732.17Z" transform="translate(-240.54 -29.73)"/><path class="cls-1" d="M1666.08,570.28a66.57,66.57,0,0,1,9.24,18.61c5.81,18.34,5.07,36.8.5,55.2-12,48.33-50.65,91.9-97.18,109.41-17.89,6.74-36.29,9.07-55.16,4.34a65.83,65.83,0,0,1-23.73-11.6,3.85,3.85,0,0,1-1.66-4.61c4.42-18,14-33,27-46,14.48-14.48,31.66-24.95,50.19-33.34,20.47-9.27,39.31-21,55.42-36.81,15.27-15,27-32.38,34.19-52.64C1665.15,572.11,1665.55,571.41,1666.08,570.28Z" transform="translate(-240.54 -29.73)"/><path class="cls-1" d="M248.51,737.2a82.79,82.79,0,0,1-4.63-28.81c.23-23.11,7.56-44.16,19.1-63.85,16.31-27.81,38.82-49.6,66-66.68,25.11-15.79,52.22-26.11,81.91-28.81,24.73-2.24,48.48,1,70.13,14.15a76.18,76.18,0,0,1,21.14,19.11c1.43,1.86,1.55,3.27.3,5.36-15.76,26.24-38.13,45.13-65.18,58.81-21.59,10.92-44.71,16.73-68.44,20.73-25.79,4.33-50.4,12.32-73,25.7-18.25,10.79-33.79,24.52-45.58,42.28A24.51,24.51,0,0,1,248.51,737.2Z" transform="translate(-240.54 -29.73)"/><path class="cls-1" d="M512.72,601.93a81.82,81.82,0,0,1,5,25c1.07,23.64-5.69,45.32-17,65.72-29.62,53.57-89.38,93-150.21,99-23.39,2.31-46-.78-66.89-12.4A81,81,0,0,1,259.21,758a4.74,4.74,0,0,1-.5-6c11-20,27.16-34.72,46.69-46,21.8-12.61,45.53-19.57,70.21-23.64,27.26-4.49,53.36-12.39,77.52-26.08,22.92-13,42.33-29.88,57.36-51.64C511,603.81,511.73,603.11,512.72,601.93Z" transform="translate(-240.54 -29.73)"/><path class="cls-1" d="M602.12,675.54a83.09,83.09,0,0,1,7.37-28.23c9.53-21.06,24.72-37.37,43.22-50.74,26.13-18.88,55.51-29.75,87.26-34.44,29.34-4.33,58.31-2.85,86.57,6.65,23.54,7.91,44,20.44,58.49,41.21a76.23,76.23,0,0,1,11.65,26c.55,2.28.09,3.62-1.9,5-25,17.65-53.08,25.93-83.34,27.55-24.16,1.29-47.66-2.7-71-8.61-25.34-6.42-51.09-9-77.2-5.91-21,2.52-40.8,8.82-58.75,20.33A24.43,24.43,0,0,1,602.12,675.54Z" transform="translate(-240.54 -29.73)"/><path class="cls-1" d="M898.44,658.21A81.66,81.66,0,0,1,893,683.16c-8.55,22.07-23.47,39.19-42,53.31-48.7,37.1-119.29,49.12-177.37,30.09-22.34-7.32-41.77-19.25-56.23-38.31a81.15,81.15,0,0,1-13.82-29.38,4.73,4.73,0,0,1,2-5.7c18.11-13.89,38.84-20.83,61.27-23.29,25-2.74,49.55.45,73.77,6.66,26.77,6.88,53.84,10.17,81.47,7.38,26.21-2.65,50.77-10.29,73.3-24.15C896.15,659.26,897.06,658.89,898.44,658.21Z" transform="translate(-240.54 -29.73)"/><path class="cls-1" d="M542.06,867.35a82.8,82.8,0,0,1,21-20.21c19.13-13,40.6-18.93,63.36-20.66,32.15-2.43,62.88,3.66,92.39,16.27,27.28,11.65,51.21,28,70.33,50.93,15.93,19,26.8,40.41,28.31,65.7a76.17,76.17,0,0,1-3.67,28.26c-.72,2.24-1.81,3.14-4.24,3.3-30.54,2-58.81-5.64-85.46-20.09-21.26-11.53-39.21-27.22-56-44.45C649.86,907.67,629.28,892,605.38,881c-19.25-8.86-39.39-13.82-60.7-13.39A22.85,22.85,0,0,1,542.06,867.35Z" transform="translate(-240.54 -29.73)"/><path class="cls-1" d="M803.71,1007.5a81.89,81.89,0,0,1-17.7,18.41c-18.82,14.35-40.5,21.14-63.69,23.48-60.91,6.16-127.37-20.5-166.93-67.09-15.22-17.92-25.55-38.24-27.91-62A81.14,81.14,0,0,1,531.07,888a4.73,4.73,0,0,1,4.65-3.83c22.71-2.37,44,2.56,64.41,12.18,22.77,10.75,42,26.29,59.41,44.25,19.22,19.85,40.57,36.81,65.58,48.88,23.73,11.44,48.67,17.77,75.11,17.74C801.21,1007.2,802.18,1007.36,803.71,1007.5Z" transform="translate(-240.54 -29.73)"/><path class="cls-1" d="M931.47,643.65a38.25,38.25,0,0,1,6.39-11.8c6.57-8.36,15.15-14,24.89-17.91,13.75-5.56,28.07-7.19,42.76-5.79,13.59,1.29,26.37,5.14,38,12.49,9.64,6.12,17.39,14,21.59,24.84a35.26,35.26,0,0,1,2.35,12.9,1.89,1.89,0,0,1-1.4,2c-13.11,5.14-26.57,5.75-40.26,3.14-10.94-2.08-21-6.45-30.77-11.65a96.85,96.85,0,0,0-33.84-11.13,63.1,63.1,0,0,0-28.48,2.62A9.75,9.75,0,0,1,931.47,643.65Z" transform="translate(-240.54 -29.73)"/><path class="cls-1" d="M1065.74,668.5a37.38,37.38,0,0,1-5.18,10.54c-6.25,8.92-14.8,14.93-24.63,19.2-25.84,11.21-58.69,8.82-82.55-6.07-9.17-5.72-16.54-13.19-20.91-23.29a37.58,37.58,0,0,1-2.94-14.65A2.17,2.17,0,0,1,931,651.9c9.62-4.21,19.64-5,29.93-3.66,11.48,1.52,22.09,5.64,32.22,11.08,11.21,6,22.94,10.46,35.58,12.26a78.46,78.46,0,0,0,35.4-2.73C1064.6,668.71,1065.05,668.65,1065.74,668.5Z" transform="translate(-240.54 -29.73)"/><path class="cls-1" d="M1191.48,882.89a82.82,82.82,0,0,1-.55-29.17c3.46-22.85,13.66-42.66,27.85-60.55,20-25.25,45.37-43.68,74.67-56.79,27.07-12.12,55.36-18.55,85.13-17.06,24.8,1.24,47.87,7.76,67.47,23.82A76.07,76.07,0,0,1,1464.3,765c1.15,2.05,1.08,3.46-.46,5.36-19.27,23.77-44.06,39.34-72.76,49.1-22.9,7.79-46.61,10.32-70.67,10.95-26.14.69-51.63,5.15-75.92,15.23-19.57,8.13-36.88,19.54-51,35.49A24.12,24.12,0,0,1,1191.48,882.89Z" transform="translate(-240.54 -29.73)"/><path class="cls-1" d="M1472,785.93a81.76,81.76,0,0,1,1.5,25.5c-2.25,23.55-12,44.08-26,62.7-36.83,48.9-101.52,79.59-162.58,77-23.49-1-45.43-7.22-64.51-21.64A81.21,81.21,0,0,1,1199.17,905a4.72,4.72,0,0,1,.35-6c13.67-18.28,31.75-30.57,52.67-39,23.35-9.43,47.82-13,72.82-13.58,27.62-.63,54.57-4.8,80.41-15,24.51-9.65,46.09-23.66,64-43.11C1470.1,787.56,1470.88,787,1472,785.93Z" transform="translate(-240.54 -29.73)"/><path class="cls-1" d="M1333.8,647.12a35.47,35.47,0,0,1,5.85-11.11c6-7.9,14-13.25,23.07-17a83.91,83.91,0,0,1,39.94-5.91c12.72,1.05,24.72,4.5,35.64,11.24,9.1,5.62,16.44,12.86,20.49,23a32.58,32.58,0,0,1,2.34,12,1.75,1.75,0,0,1-1.28,1.92c-12.2,5-24.78,5.69-37.63,3.41-10.25-1.82-19.71-5.79-28.92-10.54a90.51,90.51,0,0,0-31.79-10,59.1,59.1,0,0,0-26.61,2.78A10.5,10.5,0,0,1,1333.8,647.12Z" transform="translate(-240.54 -29.73)"/><path class="cls-1" d="M1459.7,668.8a35.39,35.39,0,0,1-4.72,9.93c-5.74,8.41-13.67,14.13-22.83,18.24-24,10.79-54.8,8.94-77.29-4.71-8.65-5.25-15.63-12.15-19.83-21.55a35.12,35.12,0,0,1-2.92-13.67,2.05,2.05,0,0,1,1.38-2.2c9-4.05,18.32-4.93,28-3.77,10.76,1.29,20.73,5,30.28,10,10.55,5.5,21.57,9.52,33.43,11.05a73.33,73.33,0,0,0,33.08-3C1458.64,669,1459.06,669,1459.7,668.8Z" transform="translate(-240.54 -29.73)"/><path class="cls-1" d="M1126,687.82a47.82,47.82,0,0,1,3.62-16.52c5-12.41,13.44-22.2,23.84-30.37,14.7-11.53,31.45-18.51,49.73-21.95,16.88-3.19,33.69-3,50.27,1.85,13.81,4,25.93,10.81,34.81,22.5a44.39,44.39,0,0,1,7.35,14.79,2.37,2.37,0,0,1-1,3c-14.07,10.8-30.13,16.24-47.62,17.87-14,1.31-27.65-.46-41.3-3.34-14.82-3.13-29.79-4.05-44.83-1.64a79.52,79.52,0,0,0-33.54,13.13C1127,687.34,1126.56,687.5,1126,687.82Z" transform="translate(-240.54 -29.73)"/><path class="cls-1" d="M1297.12,670.94a47.22,47.22,0,0,1-2.59,14.57c-4.43,13-12.68,23.23-23.09,31.84-27.34,22.6-67.93,31.19-102,21.51-13.11-3.72-24.63-10.18-33.44-20.88a46.91,46.91,0,0,1-8.68-16.69,2.73,2.73,0,0,1,1-3.34c10.16-8.46,22-13,34.93-14.9,14.43-2.17,28.7-.89,42.87,2.15,15.65,3.36,31.4,4.64,47.33,2.39a98.84,98.84,0,0,0,41.88-15.67C1295.82,671.6,1296.34,671.37,1297.12,670.94Z" transform="translate(-240.54 -29.73)"/><path class="cls-1" d="M748.53,832.31a29.43,29.43,0,0,1,1.45-8.79c2.71-8.46,7.91-15.21,14.62-20.85,12-10.08,26-15.33,41.51-16.78A61.19,61.19,0,0,1,835.82,790c7.63,3.18,14,7.88,18.2,15.22,1,1.75,1.62,3.72,2.45,5.57.43.94.08,1.48-.67,2.08A56.33,56.33,0,0,1,831.54,824a77,77,0,0,1-30.09-.26c-9.7-1.86-19.44-2.57-29.26-1a51.48,51.48,0,0,0-22.91,9.19C749.12,832,748.93,832.07,748.53,832.31Z" transform="translate(-240.54 -29.73)"/><path class="cls-1" d="M857.63,819a29,29,0,0,1-2,11c-3.38,9-9.44,16-17.06,21.61-12.94,9.57-27.58,14.23-43.6,14.63A57.91,57.91,0,0,1,768.45,861c-8-3.77-14.41-9.16-17.76-17.52-1.91-4.76-2.18-3.57,1.89-6.68,7.65-5.85,16.57-8.26,26-8.93a87.46,87.46,0,0,1,22.19,1.68c16.2,3,32,2.24,47.17-4.89,1.65-.78,3.26-1.66,4.84-2.58S855.89,820.16,857.63,819Z" transform="translate(-240.54 -29.73)"/><path class="cls-1" d="M362.21,866a41.54,41.54,0,0,1,.74-12.74c2.58-12.47,9-22.89,17.7-31.93,15.6-16.18,34.8-25.77,56.67-30.16,14.4-2.9,28.78-2.85,43,1.38,11.36,3.39,21.22,9.14,28.24,19,1.69,2.35,2.87,5.06,4.34,7.58.74,1.27.33,2.1-.65,3.06a80.89,80.89,0,0,1-32.93,19.45c-14,4.42-28.38,5.37-42.94,4.14-14.11-1.19-28.1-.74-41.86,3-11.68,3.14-22.28,8.33-31.28,16.55C363,865.45,362.74,865.61,362.21,866Z" transform="translate(-240.54 -29.73)"/><path class="cls-1" d="M515.76,830.68a41.58,41.58,0,0,1-1.18,16c-3.46,13.37-11.06,24.2-21.07,33.38-17,15.59-37.18,24.43-60,27.41-13.11,1.71-26.06.92-38.63-3.48C383,899.79,373,893.08,367,881.66c-3.43-6.5-3.64-4.77,1.7-9.81,10-9.49,22.38-14.27,35.77-16.64,10.58-1.87,21.22-1.79,31.89-.94,23.55,1.88,46-1.63,66.51-14.07,2.24-1.36,4.4-2.86,6.51-4.41S513.43,832.54,515.76,830.68Z" transform="translate(-240.54 -29.73)"/><path class="cls-1" d="M505.34,750.11a27.9,27.9,0,0,1,4.5-7.19c5.48-6.44,12.53-10.47,20.48-13,14.25-4.47,28.5-3.94,42.64.47a58.24,58.24,0,0,1,24.61,14.5C603.11,750.52,607,757,608,765c.23,1.91.06,3.87.11,5.8,0,1-.47,1.33-1.35,1.58a53.68,53.68,0,0,1-25.38.85A73.21,73.21,0,0,1,555,761.93c-7.85-5.19-16.14-9.38-25.34-11.61a49,49,0,0,0-23.5-.32C506,750,505.78,750.05,505.34,750.11Z" transform="translate(-240.54 -29.73)"/><path class="cls-1" d="M606.09,778.44a27.5,27.5,0,0,1-5.78,8.94C594,794.07,586.16,798,577.4,800.13A71.11,71.11,0,0,1,533.72,797a55,55,0,0,1-21.41-14.33c-5.6-6.22-9.3-13.33-9.18-21.91.07-4.88-.6-3.94,4.11-5.18,8.87-2.33,17.59-1.18,26.15,1.71a82.61,82.61,0,0,1,18.89,9.61c13.12,8.59,27.32,13.7,43.24,13,1.74-.07,3.48-.26,5.2-.49S604.14,778.79,606.09,778.44Z" transform="translate(-240.54 -29.73)"/><path class="cls-1" d="M519.85,556.21a27.9,27.9,0,0,1,4.5-7.19c5.48-6.44,12.53-10.47,20.48-13,14.25-4.47,28.49-3.94,42.64.47A58.24,58.24,0,0,1,612.08,551c5.54,5.59,9.45,12.08,10.41,20,.23,1.91.06,3.87.11,5.8,0,1-.47,1.34-1.35,1.58a53.68,53.68,0,0,1-25.38.85A73.21,73.21,0,0,1,569.52,568c-7.85-5.19-16.15-9.38-25.34-11.61a49.07,49.07,0,0,0-23.51-.32C520.49,556.14,520.29,556.15,519.85,556.21Z" transform="translate(-240.54 -29.73)"/><path class="cls-1" d="M620.6,584.55a27.56,27.56,0,0,1-5.78,8.93c-6.27,6.7-14.15,10.59-22.92,12.75-14.87,3.66-29.45,2.39-43.67-3.14a55,55,0,0,1-21.41-14.33c-5.6-6.22-9.3-13.33-9.18-21.91.07-4.88-.6-3.93,4.11-5.17,8.87-2.34,17.59-1.19,26.15,1.7A82.61,82.61,0,0,1,566.79,573c13.12,8.59,27.32,13.7,43.24,13,1.74-.07,3.48-.26,5.2-.49S618.65,584.89,620.6,584.55Z" transform="translate(-240.54 -29.73)"/></svg>