<svg id="Ebene_1" data-name="Ebene 1" xmlns="http://www.w3.org/2000/svg" viewBox="0 0 447.76 1014.93"><defs><style>.cls-1{fill:silver;}</style></defs><path class="cls-1" d="M779,410c-1.37-5.91-2-10.54-3.51-14.81-6.22-17-9.06-34.4-6.59-52.39.77-5.63-.9-8.21-6.24-10.39-28.58-11.66-34.56-35.89-15.54-60.57a17.36,17.36,0,0,0,3.07-9.32c.58-12.28,6-21.25,17.89-24.59,8.94-2.5,10.12-8.11,10.1-16-.09-36.94,7.6-71.89,28.3-103.13C847.92,56.18,906,26.25,981,33.64c73.93,7.29,123.38,48.91,150.42,116.8,7,17.57,8.12,37.54,11.35,56.51,1,5.84,1.79,9.88,8.21,12.85,11,5,13.21,16.39,15.93,27.09,1.09,4.29,2.79,9,5.65,12.17,15.83,17.75,15.47,37.44-3.39,51.94-8.42,6.48-9,13.13-7.4,21.72,2.22,11.94,3.87,24,7,35.78,4,15.32,0,28.26-9.18,40.3-1.14,1.49-2.09,3.11-3.59,5.38,13.41,8.48,20.57,20.95,22.83,36.55,3.74,25.73-9.54,46.68-34.33,54.6-3.55,1.13-6.3,4.86-9.32,7.51-3.69,3.25-6.87,7.26-11,9.81a28.45,28.45,0,0,0-13.5,19.24q-45.14,208.18-90.38,416.33c-3.68,17-5.76,34.42-9.58,51.41-1.73,7.73-4.69,15.73-9.15,22.18-16.11,23.29-48.67,20-59.47-6.11-4.58-11.09-6.68-23.28-9.18-35.13-5.9-28-10.85-56.24-17.11-84.18-26.89-120-54.29-239.93-81-360-3.08-13.87-9.62-23.23-22.5-28.57-3.12-1.3-6-3.08-9.33-4.77l3.24-15.83c-7.07-1.88-14.1-4-21.23-5.59-33.1-7.54-41.34-38.66-38.38-63,1.44-11.78,8.12-16.92,20.48-17.78C770.45,410.63,773.84,410.36,779,410Zm105.1,300,0-.19c2,11,3.43,22.16,6,33.05,8.44,36.29,17.28,72.47,25.92,108.71,6,25.08,12.35,50.08,17.62,75.3,4.52,21.6,8.88,43.35,11.06,65.25,1.26,12.7,4.45,23.67,11.94,33.66,5.76,7.68,16.78,10.43,26.57,6.63l2.83-2.13a38.94,38.94,0,0,0,14.14-28.46,137.64,137.64,0,0,1,2.54-21.36c5-22.79,10.79-45.42,15.71-68.23,11.43-52.94,22.41-106,33.81-158.94,10-46.57,20.32-93.08,30.6-139.59,6-27.35,12-54.72,18.65-81.92,1.24-5,4.58-10.93,8.76-13.6,10.44-6.67,18.74-13.64,15.11-27.67,25.55,3.24,38.36-4.5,41.24-24.72,1.63-11.42-.34-22.41-6.78-32.29-6.3-9.67-16.59-9.38-28.11-9.81,5.84-6.92,10.66-12.49,15.31-18.18,9.14-11.19,13.24-23,9.36-38.09-4.83-18.85-7.25-38.32-10.8-57.95,13.52-4.31,29.42-5.65,29-25.08-.28-12.23-7.79-18.3-17.07-20.52-.69-10,.52-19.58-2.4-27.72-3.49-9.72-13.7-11.37-23.91-10.54,0-3.61.15-6.41,0-9.19-1.57-25-4.13-49.81-14.89-72.88C1084.42,75.39,1011.83,35,936.73,46.07,858.14,57.65,792.91,128.34,791,207.83c-.3,12.39,0,24.79,0,37a44.87,44.87,0,0,1-4.71.8c-18.81.26-23.92,5.3-25.48,24.24-.22,2.63-2.24,5.59-4.27,7.5-8.41,7.91-11,17.64-7.73,28.18,3.57,11.46,12.43,17.54,24.35,19,2.71.33,5.43.58,7.76.82a9.65,9.65,0,0,1,1.12,2.31,28.86,28.86,0,0,1,0,3.72c-.93,21.56-1.32,42.89,6.27,63.83,2.89,7.94,2,17.27,2.93,27.74-4.87-2.23-6.76-3.33-8.79-4-16.51-5.36-33.28,8.39-28.27,24.51,5.27,16.92,16.78,34.34,38,37.11,8.16,1.06,16.42,1.25,25.23,1.87,0,2.62.39,6.07-.07,9.41-1.33,9.63,1.32,16.54,10.8,21s15.14,12.58,17,23.17c1.54,8.57,3.3,17.12,5.22,25.62Q867.19,635.82,884.09,710Z" transform="translate(-736.12 -32.54)"/><path class="cls-1" d="M983.13,1032.38l-10-6.48-12.6.9c.82-3.14,1.64-6.29,2.72-10.46-5.24-6.05-17.65-8.89-14.51-23.27l23.47,19.44,22.93-16.82c3.21,13.82-11,14.11-13.4,19.74,1.74,6.08,3,10.45,4.23,14.82Z" transform="translate(-736.12 -32.54)"/><path class="cls-1" d="M884.09,710c2.72-2.91,5.44-5.8,8.15-8.72,2.52-2.72,5-5.47,8.15-8.88l-19.6-20.46c-9.74-10.19-9.63-18.88.38-28.6,5.61-5.45,11.24-10.87,16.84-16.34a13.94,13.94,0,0,0,1.36-2.37L876,605.23l1.6-2.54L866,613.21c-7.75-9.06,3.78-10.92,5.83-16.39-5.27-9-18.16-13.43-16.13-29.39l21.09,23.89,24.5-22-25.05-27.36-22.2,20a22.94,22.94,0,0,1-1.46-2.86c-1.64-5.31,10.28-22.69,18.72-26.33,6.93-3,10.6,2.31,14.7,6.74,6.71,7.24,13.85,14.06,23.89,24.15,8.58-10.13,16.12-18.88,23.47-27.79,4.29-5.21,8.51-6.05,13.08-.56,7,8.44,14,16.92,21.54,26.1,11.23-10.87,19.24-18.66,27.3-26.41s9.39-7.41,15.78,1.2,12.86,16.77,19.31,25.15l6.15-1.55c7.43-8.45,15-16.77,22.25-25.38,4.75-5.65,9.78-6.24,15.42-1.83,4.65,3.64,9.25,7.37,13.56,11.4,4.74,4.44,5.42,9.54.49,15.68l-23.92-19.85-24.57,26.52,23.48,22.2,23.33-21.92c4.16,9-2.41,12.68-6.66,17.08-9.36,9.68-9.21,9.46-2.23,21.08,1.58,2.63.89,6.62,1.5,12.44l-14.89-12.87-25.26,19.29c9.17,9,16.34,16.37,23.8,23.39,8.15,7.65,8.26,15.11-.16,23.08-7.25,6.85-14.58,13.6-21.11,19.7.82,12.62,19.21,15.82,13.75,29.76l-21-21.46c-10,9.91-17.92,17.74-26.45,26.2l29.5,26.15,13.28-16.14,2.83,1.81-10.61,21c.73,3.69,1.71,8.68,2.69,13.66l-1.94,1.18-9.85-7.7-25.59,27.24c6.71,7.19,14.24,15.41,21.94,23.47,5.2,5.45,4.83,9.66-1.14,14.66-7.63,6.41-14.42,13.82-21.21,20.44,2.54,10.52,22.09,12.15,10.5,30.71l-15.95-23.12L975.49,883c9.09,8.18,17.21,16.3,26.29,23.16,2.61,2,8,.3,12.44.3-1.41,5.81-3.1,12.78-4.52,18.61-14.72,3.56-18.26,19.52-30,24.94,5,10.67,22.41,12.4,18.64,29.84l-25.21-23.3-24.44,22.83c-4.07-6.65-4.14-6.72,3.33-14.31,4.13-4.21,8.53-8.17,13.81-13.19-8.21-7-16-13.14-23.14-19.91a39.54,39.54,0,0,1-7.79-11.14c-2.56-5.14-1.75-9,3.59-13.33,8.66-7,15.83-15.86,24.12-24.44L938.72,861.4l-14.09,11c-3.87-5.81-3.87-5.81,5.66-17.07-5.14-10.19-19.44-15.13-18.3-30.42l25.76,21.79,25.74-25.46L937,795.34c-8.21,7.95-16.92,16.4-25.75,25-1.65-4.8-1.65-4.8,18.81-30.57-8.51-8.49-17-17-25.91-25.81l-4.93,3.7c-2.54-9.49-4.87-18.15-7.19-26.81l1.94-.86,10.2,9.5,25.75-26.13L906,698.28c-4.7,4.25-9.46,8.13-13.69,12.51-3.49,3.6-5.8,2.35-8.2-1C884.06,709.78,884.09,710,884.09,710ZM1000,918.09c-10.19-9.72-19.6-18.71-30-28.69l-27.58,29.32,28.5,25.49Zm5.66-259,26,26.12,29.25-25.2-26.53-27.62Zm-3.84,126.08,25.63-27.79-26.74-26.76L975.44,756.8ZM904.89,631.73l-23.56,25.49L904,685l28.14-25.93Zm62.91,118,28.52-27.33L970.91,700l-28.29,24.66C951.76,733.73,960.29,742.23,967.8,749.7Zm.31-127.39,28.51-27.95L970.68,570l-28,26.23Zm-3.69,69.17-27.59-25.66c-6.59,7.19-14.08,15-21.07,23.27-1.29,1.51-1.69,5.77-.57,7,6.94,7.67,14.43,14.83,21.22,21.64ZM1028,624.41l-24.43-22.8c-8.56,7.93-16.39,14.64-23.43,22.11-1.72,1.83-2.26,7.19-.86,9.1,5.63,7.7,12.23,14.69,19.17,22.74ZM994.75,790.54,968.35,767,945.7,788l24.5,25.2Zm-57.7-9.6L962,758l-23.67-25.24L914,754.88Zm37.81-90.87,28.37,26.35,24.61-24.72c-7.44-6.87-15.12-13.3-22-20.52-4.22-4.46-7.75-3.31-11.2-.22C988.2,676.76,982.13,683,974.86,690.07ZM944.7,854.89,970,877.43,994.16,852l-23.49-23.75C962.16,837,953.74,845.62,944.7,854.89Zm-9.08-264,26-25.88-19.68-23.47-27.15,27.3ZM969,683.06l23.5-21.53-22.92-24.28-23.45,23Zm-7.39-52.28-23.9-25.09-23.19,22.74L940,652.22Zm39.68-91.9L980.66,562l23.05,24.92,22.88-20.54Zm30.94,32.46-19.25,22.08,20.55,24L1057,594.5ZM1001.24,843,1025,821.45l-22.71-23.79-26.67,23.66ZM884.37,597.32l21.14,23c9.13-8.69,17-16.14,22.89-21.8L906.87,574Z" transform="translate(-736.12 -32.54)"/><path class="cls-1" d="M1120.45,432.26c-2,2.27-3.49,5.63-6,6.63a398.21,398.21,0,0,1-102.67,26.51c-37,4.4-74.18,5.56-111.13-.08-34.48-5.27-68.58-12.52-99.08-30.77-2.22-1.33-3.07-5-3.3-8.66,25.85,17.14,55,23.3,83.86,28.06,27.21,4.49,55.11,5.77,82.76,6.42,52.15,1.23,101.84-11.48,150.27-29.83a13.76,13.76,0,0,1,2.68-.43Z" transform="translate(-736.12 -32.54)"/><path class="cls-1" d="M1117.31,490c-16.25,2.43-31.58,5.19-47,6.71-4.4.43-9.81-1.82-13.6-4.48-11.89-8.36-22.34-9.45-34.61-2-5.87,3.56-11.45,7.58-17.17,11.38-11,7.3-24,7.61-33.94-.63-14.53-12-28.88-15.43-46-4.68-10,6.27-21.48,10.9-33.78,8.26C885.5,503.37,880,500.15,875,497c-3-1.91-4.92-5.59-7.53-8.28-11.77-12.14-21.49-13.08-35.59-3.61-1.27.85-2.65,1.53-4,2.28-4.73-4.76-2.23-7.82,2.06-10.53,14.11-8.9,26.66-5.29,41.92,8.09,4.34,3.81,8.62,9.29,13.67,10.3,7.18,1.44,15.32.51,22.54-1.36,7.42-1.92,14.24-6.17,21.31-9.43,10.23-4.72,20.3-5.58,30.22.95,3.65,2.39,7.65,4.26,11.24,6.73,11.41,7.85,22.31,7.69,33.68-.53A149.32,149.32,0,0,1,1026.38,479c10.3-5.06,20.37-3,28.88,3.95,6.29,5.16,12.67,5.69,20.07,4.25,9.78-1.89,19.61-3.63,29.49-4.88C1111.19,481.51,1116.61,483.2,1117.31,490Z" transform="translate(-736.12 -32.54)"/><path class="cls-1" d="M800.37,252.3c107.66,35.54,212.69,22.6,317.08-14.39.8,7-5.37,9.9-11.31,11.72C1086,255.84,1065.89,263,1045.25,267c-30.86,6-62,11.59-93.32,13.83a336,336,0,0,1-105.83-9.64c-11.45-2.86-23.28-4.25-34.67-7.29-4.7-1.26-8.72-5.08-13-7.73Z" transform="translate(-736.12 -32.54)"/><path class="cls-1" d="M1121.85,316.42c-17.73-11.79-34.73-9.4-52.28,1.76-12.65,8-26.51,4-38.23-2.89-18.24-10.74-34.74-9.56-51.29,2.85-5,3.73-10.15,7.7-15.88,9.81-10.12,3.73-19.58,1-28-5.7-14.27-11.36-23.55-11.09-38.8-.6-5.77,4-12.57,6.72-19.23,9.09-9,3.22-16.79.86-23.84-6.11-10.45-10.34-19.31-10.82-31.74-2.51-6.45,4.32-12.48,9.25-20.2,15,0-3.05-1-6.41.16-7.71,13.59-14.75,33.74-26.27,54.37-10.62,8.8,6.67,17.69,6.35,27.16,1.8,6.46-3.11,13-6,19.69-8.64,10.44-4.17,21-4.28,30.54,2,14.35,9.42,27.18,8.61,41.41-1.26,15.82-11,33.62-14.55,52.23-5.85,1.4.65,3,.85,4.42,1.5,15.54,7.19,30.49,6.72,45.48-2.14,14-8.27,28.54-3.36,42.66.26C1126.13,307.9,1126.64,311.87,1121.85,316.42Z" transform="translate(-736.12 -32.54)"/></svg>